<svg xmlns="http://www.w3.org/2000/svg" xmlns:xlink="http://www.w3.org/1999/xlink" width="500" zoomAndPan="magnify" viewBox="0 0 375 374.999991" height="500" preserveAspectRatio="xMidYMid meet" version="1.0"><defs><clipPath id="81a9ae6199"><path d="M 69 52 L 294 52 L 294 238 L 69 238 Z M 69 52 " clip-rule="nonzero"/></clipPath><clipPath id="a0f3b3f762"><path d="M 89.222656 258.101562 L 57.289062 75.621094 L 276.707031 37.226562 L 308.640625 219.703125 Z M 89.222656 258.101562 " clip-rule="nonzero"/></clipPath><clipPath id="ea816addd3"><path d="M 57.332031 75.863281 L 89.265625 258.34375 L 308.679688 219.945312 L 276.75 37.46875 Z M 57.332031 75.863281 " clip-rule="nonzero"/></clipPath><clipPath id="a7ef1c89b5"><path d="M 114.960938 216.601562 L 151.710938 216.601562 L 151.710938 253.351562 L 114.960938 253.351562 Z M 114.960938 216.601562 " clip-rule="nonzero"/></clipPath></defs><rect x="-37.5" width="450" fill="#ffffff" y="-37.499999" height="449.999989" fill-opacity="1"/><rect x="-37.5" width="450" fill="#ffffff" y="-37.499999" height="449.999989" fill-opacity="1"/><path stroke-linecap="butt" transform="matrix(0.748964, 0, 0, 0.750436, 168.604577, 171.109294)" fill="none" stroke-linejoin="miter" d="M 259.390888 0.000107452 L 259.390888 232.85439 C 259.390888 246.107106 248.641659 256.856069 235.38897 256.856069 L 35.998852 256.856069 C 22.746163 256.856069 12.002149 246.107106 12.002149 232.85439 L 12.002149 131.345664 " stroke="#38b6ff" stroke-width="24" stroke-opacity="1" stroke-miterlimit="4"/><path stroke-linecap="butt" transform="matrix(0.746828, 0, 0, 0.749531, 294.558969, 2.25)" fill="none" stroke-linejoin="miter" d="M -0.000502669 12.002289 L 67.451461 12.002289 C 80.705437 12.002289 91.448794 22.743374 91.448794 36.001656 L 91.448794 225.145851 " stroke="#38b6ff" stroke-width="24" stroke-opacity="1" stroke-miterlimit="4"/><path stroke-linecap="butt" transform="matrix(0.75012, 0, 0, 0.749531, 2.853359, 2.25)" fill="none" stroke-linejoin="miter" d="M 388.940346 12.002289 L 36.002239 12.002289 C 22.743951 12.002289 12.000885 22.743374 12.000885 36.001656 L 12.000885 225.145851 " stroke="#38b6ff" stroke-width="24" stroke-opacity="1" stroke-miterlimit="4"/><path stroke-linecap="butt" transform="matrix(0.750189, 0, 0, 0.748908, 2.853359, 171.109294)" fill="none" stroke-linejoin="miter" d="M 173.964166 221.854271 L 173.964166 239.1242 C 173.964166 243.708998 172.146915 248.100807 168.908149 251.339896 C 165.669382 254.578986 161.274656 256.399344 156.692478 256.399344 L 35.998946 256.399344 C 22.747078 256.399344 11.999788 245.654538 11.999788 232.400872 L 11.999788 0.000107672 " stroke="#38b6ff" stroke-width="24" stroke-opacity="1" stroke-miterlimit="4"/><g clip-path="url(#81a9ae6199)"><g clip-path="url(#a0f3b3f762)"><g clip-path="url(#ea816addd3)"><path fill="#38b6ff" d="M 170.851562 232.066406 C 169.390625 231.765625 168 231.230469 166.71875 230.511719 C 166.46875 230.367188 166.207031 230.226562 165.957031 230.0625 L 165.105469 229.464844 C 162.363281 227.382812 160.355469 224.308594 159.714844 220.648438 C 159.304688 218.300781 159.554688 216.007812 160.242188 213.894531 C 160.601562 212.796875 161.035156 211.738281 161.636719 210.765625 L 162.570312 209.441406 C 162.832031 209.113281 163.148438 208.828125 163.4375 208.523438 C 165.449219 206.390625 168.089844 204.824219 171.203125 204.28125 C 174.425781 203.714844 177.578125 204.304688 180.257812 205.730469 C 179.621094 205.390625 178.957031 205.109375 178.277344 204.871094 L 178.292969 204.835938 C 189.113281 208.988281 200.933594 210.191406 212.488281 208.167969 C 247.5 202.042969 270.992188 168.5625 264.863281 133.535156 C 258.734375 98.511719 225.269531 75 190.257812 81.125 C 160.742188 86.292969 139.480469 110.945312 138.40625 146.460938 L 179.003906 128.480469 L 132.351562 203.617188 L 69.066406 142.957031 L 110.136719 153.632812 C 110.109375 153.203125 110.175781 152.773438 110.292969 152.347656 C 109.066406 100.246094 140.644531 61.242188 185.40625 53.410156 C 235.695312 44.609375 283.765625 78.382812 292.566406 128.6875 C 301.371094 179 267.628906 227.085938 217.339844 235.886719 C 201.675781 238.628906 185.671875 237.246094 170.851562 232.066406 " fill-opacity="1" fill-rule="nonzero"/></g></g></g><path stroke-linecap="butt" transform="matrix(0, -0.75, 0.75, 0, 124.323688, 351.972282)" fill="none" stroke-linejoin="miter" d="M -0.000499417 12.000709 L 156.009927 12.000709 " stroke="#38b6ff" stroke-width="24" stroke-opacity="1" stroke-miterlimit="4"/><g clip-path="url(#a7ef1c89b5)"><path fill="#38b6ff" d="M 133.335938 216.601562 C 143.484375 216.601562 151.710938 224.828125 151.710938 234.976562 C 151.710938 245.125 143.484375 253.351562 133.335938 253.351562 C 123.1875 253.351562 114.960938 245.125 114.960938 234.976562 C 114.960938 224.828125 123.1875 216.601562 133.335938 216.601562 Z M 133.335938 216.601562 " fill-opacity="1" fill-rule="evenodd"/></g><path stroke-linecap="butt" transform="matrix(0, -0.748453, 0.75, 0, 168.604241, 349.726177)" fill="none" stroke-linejoin="miter" d="M -0.000515016 12.001637 L 189.390121 12.001637 " stroke="#38b6ff" stroke-width="24" stroke-opacity="1" stroke-miterlimit="4"/></svg>