<svg xmlns="http://www.w3.org/2000/svg" xmlns:xlink="http://www.w3.org/1999/xlink" width="500" zoomAndPan="magnify" viewBox="0 0 375 374.999991" height="500" preserveAspectRatio="xMidYMid meet" version="1.0"><defs><clipPath id="ff1d404ddd"><path d="M 73 75 L 299 75 L 299 261 L 73 261 Z M 73 75 " clip-rule="nonzero"/></clipPath><clipPath id="cd681030c9"><path d="M 93.828125 281.40625 L 61.894531 98.929688 L 281.308594 60.53125 L 313.242188 243.007812 Z M 93.828125 281.40625 " clip-rule="nonzero"/></clipPath><clipPath id="ea5fd3f124"><path d="M 61.9375 99.171875 L 93.867188 281.648438 L 313.285156 243.25 L 281.351562 60.773438 Z M 61.9375 99.171875 " clip-rule="nonzero"/></clipPath><clipPath id="2a29620170"><path d="M 107.628906 246.058594 L 159.378906 246.058594 L 159.378906 297.808594 L 107.628906 297.808594 Z M 107.628906 246.058594 " clip-rule="nonzero"/></clipPath></defs><path stroke-linecap="butt" transform="matrix(0.750045, 0, 0, 0.750436, 175.654563, 171.109294)" fill="none" stroke-linejoin="miter" d="M 249.987371 0.000107452 L 249.987371 232.85439 C 249.987371 246.107106 239.243219 256.856069 225.988799 256.856069 L 45.832855 256.856069 C 32.578436 256.856069 21.834284 246.107106 21.834284 232.85439 L 21.834284 105.813624 C 21.834284 99.785877 16.94395 94.898092 10.918267 94.898092 L 0.00224978 94.898092 " stroke="#38b6ff" stroke-width="24" stroke-opacity="1" stroke-miterlimit="4"/><path stroke-linecap="butt" transform="matrix(0.746828, 0, 0, 0.749531, 294.558969, 2.25)" fill="none" stroke-linejoin="miter" d="M -0.000502669 12.002289 L 67.451461 12.002289 C 80.705437 12.002289 91.448794 22.743374 91.448794 36.001656 L 91.448794 225.145851 " stroke="#38b6ff" stroke-width="24" stroke-opacity="1" stroke-miterlimit="4"/><path stroke-linecap="butt" transform="matrix(0.75012, 0, 0, 0.749531, 2.853359, 2.25)" fill="none" stroke-linejoin="miter" d="M 388.940346 12.002289 L 36.002239 12.002289 C 22.743951 12.002289 12.000885 22.743374 12.000885 36.001656 L 12.000885 225.145851 " stroke="#38b6ff" stroke-width="24" stroke-opacity="1" stroke-miterlimit="4"/><path stroke-linecap="butt" transform="matrix(0.750189, 0, 0, 0.748908, 2.853359, 171.109294)" fill="none" stroke-linejoin="miter" d="M 173.964166 221.854271 L 173.964166 239.1242 C 173.964166 243.708998 172.146915 248.100807 168.908149 251.339896 C 165.669382 254.578986 161.274656 256.399344 156.692478 256.399344 L 35.998946 256.399344 C 22.747078 256.399344 11.999788 245.654538 11.999788 232.400872 L 11.999788 0.000107672 " stroke="#38b6ff" stroke-width="24" stroke-opacity="1" stroke-miterlimit="4"/><g clip-path="url(#ff1d404ddd)"><g clip-path="url(#cd681030c9)"><g clip-path="url(#ea5fd3f124)"><path fill="#38b6ff" d="M 175.453125 255.375 C 173.992188 255.070312 172.601562 254.539062 171.324219 253.816406 C 171.070312 253.671875 170.808594 253.53125 170.5625 253.371094 L 169.707031 252.769531 C 166.964844 250.6875 164.957031 247.613281 164.316406 243.953125 C 163.90625 241.609375 164.15625 239.3125 164.847656 237.199219 C 165.203125 236.105469 165.640625 235.042969 166.242188 234.070312 L 167.171875 232.746094 C 167.433594 232.417969 167.75 232.132812 168.042969 231.828125 C 170.054688 229.695312 172.691406 228.132812 175.804688 227.585938 C 179.027344 227.023438 182.179688 227.609375 184.859375 229.039062 C 184.222656 228.699219 183.5625 228.414062 182.878906 228.175781 L 182.894531 228.140625 C 193.714844 232.296875 205.535156 233.496094 217.09375 231.472656 C 252.101562 225.347656 275.597656 191.871094 269.464844 156.84375 C 263.335938 121.816406 229.871094 98.304688 194.859375 104.433594 C 165.34375 109.597656 144.082031 134.25 143.007812 169.765625 L 183.605469 151.785156 L 136.953125 226.921875 L 73.671875 166.261719 L 114.738281 176.941406 C 114.714844 176.507812 114.777344 176.078125 114.894531 175.652344 C 113.667969 123.550781 145.246094 84.546875 190.011719 76.714844 C 240.296875 67.914062 288.367188 101.6875 297.171875 151.996094 C 305.976562 202.304688 272.230469 250.390625 221.941406 259.191406 C 206.277344 261.933594 190.273438 260.554688 175.453125 255.375 " fill-opacity="1" fill-rule="nonzero"/></g></g></g><path stroke-linecap="butt" transform="matrix(0, -0.752852, 0.75, 0, 124.324787, 337.496872)" fill="none" stroke-linejoin="miter" d="M 0.00103405 11.999243 L 65.756223 11.999243 " stroke="#38b6ff" stroke-width="24" stroke-opacity="1" stroke-miterlimit="4"/><g clip-path="url(#2a29620170)"><path fill="#38b6ff" d="M 133.503906 246.058594 C 147.792969 246.058594 159.378906 257.644531 159.378906 271.933594 C 159.378906 286.226562 147.792969 297.808594 133.503906 297.808594 C 119.214844 297.808594 107.628906 286.226562 107.628906 271.933594 C 107.628906 257.644531 119.214844 246.058594 133.503906 246.058594 Z M 133.503906 246.058594 " fill-opacity="1" fill-rule="evenodd"/></g></svg>